<svg xmlns="http://www.w3.org/2000/svg" viewBox="0 0 800 800"><defs><style>.cls-1{fill:#e1e1e1;}.cls-2{fill:#ececec;}.cls-3{fill:#f5f5f5;}.cls-4{fill:#5271da;}.cls-5{opacity:0.8;}.cls-6{fill:#fff;}.cls-7,.cls-8{opacity:0.3;}.cls-9{fill:#ffbe9c;}.cls-10{fill:#ff996c;}.cls-11{opacity:0.6;}.cls-12{fill:#fafafa;}.cls-13{fill:none;}</style></defs><g id="Layer_2" data-name="Layer 2"><g id="Layer_1-2" data-name="Layer 1"><path class="cls-1" d="M236.52,551.44c-2.77-2.92-6.88-4-10.66-5.42a57.22,57.22,0,0,1-26.21-87.73l-.57-2.94c-1.3-13.68-17.82-23.49-30.45-18.08s-16.91,24.15-7.89,34.52c-14.83,1.23-24.62,18.12-22.53,32.84s12.86,26.82,24.86,35.61a117.69,117.69,0,0,0,68.34,22.57,9.51,9.51,0,0,0,4.85-.87C239.74,559.91,239.29,554.36,236.52,551.44Z"/><path class="cls-1" d="M649.44,491.54c3.4-5.52,3.88-13,.43-18.47s-11-8.28-16.94-5.56a12.41,12.41,0,0,0-21.06-13.12c-3.94,6.09-1.86,14.27,1.53,20.69s8,12.45,9.16,19.63c1.14,7.33-1.68,14.83-6.06,20.82s-10.24,10.69-16,15.34l-1.11,1.06a39.84,39.84,0,0,0,31.88-2.74c5.44-3,10.48-8,10.84-14.21.2-3.47-1.09-6.94-.57-10.38C642.3,499.52,646.74,495.92,649.44,491.54Z"/><path class="cls-1" d="M350.8,718.57c-5.39-.67-10.82-3-14-7.46-2-2.82-3-6.27-4.78-9.27s-4.84-5.71-8.3-5.37c-5.37.52-9,7.94-14.22,6.63-3.14-.78-4.64-4.48-4.66-7.72s.92-6.47.52-9.68c-1.13-9-12.74-13.48-21.4-10.66s-21.81,13.27-27.45,20.42c5.93,9.87,18.11,13.7,29.28,16.5q28.13,7,56.73,12c4.47.77,9,1.5,13.51.8s8.93-3.09,11-7.12C361.66,718.42,356.2,719.24,350.8,718.57Z"/><path class="cls-1" d="M565.8,648.93c-1.38-7.72-9.08-14.52-16.72-12.74,6.34-5.22,6.37-15.72,1.37-22.23s-13.71-9.31-21.92-9.06-16.08,3.12-23.7,6.18c3.74-4.76-1.73-12.16-7.76-12.56s-11.43,3.44-16.32,7-10.55,7.16-16.52,6.23l5.61,2.24c13.4,2,26.91,5.16,38.51,12.16s21.16,18.41,23.16,31.81-5,28.41-17.76,33.09a53.94,53.94,0,0,0,45.12-20.36C563.68,664.49,567.17,656.65,565.8,648.93Z"/><path class="cls-1" d="M125.54,448.69c-.2,0-.36-5.79-.36-12.93s.16-12.94.36-12.94.36,5.79.36,12.94S125.74,448.69,125.54,448.69Z"/><path class="cls-1" d="M138.91,435.76c0,.2-6,.36-13.37.36s-13.37-.16-13.37-.36,6-.36,13.37-.36S138.91,435.56,138.91,435.76Z"/><path class="cls-1" d="M641.41,581.64c-.2,0-.37-5.79-.37-12.94s.17-12.93.37-12.93.36,5.79.36,12.93S641.61,581.64,641.41,581.64Z"/><path class="cls-1" d="M654.78,568.7c0,.2-6,.37-13.37.37S628,568.9,628,568.7s6-.36,13.37-.36S654.78,568.5,654.78,568.7Z"/><path class="cls-1" d="M562.94,137.76c-.2,0-.37-5.79-.37-12.93s.17-12.94.37-12.94.36,5.79.36,12.94S563.13,137.76,562.94,137.76Z"/><path class="cls-1" d="M576.31,124.83c0,.2-6,.36-13.37.36s-13.38-.16-13.38-.36,6-.36,13.38-.36S576.31,124.63,576.31,124.83Z"/><circle class="cls-1" cx="140.42" cy="327.18" r="7.9"/><path class="cls-1" d="M455.8,663.78a7.91,7.91,0,1,1-7.91-7.9A7.91,7.91,0,0,1,455.8,663.78Z"/><path class="cls-1" d="M529.34,514.41a7.9,7.9,0,1,1-7.9-7.9A7.9,7.9,0,0,1,529.34,514.41Z"/><path class="cls-1" d="M294.51,120.84a7.91,7.91,0,1,1-7.9-7.91A7.9,7.9,0,0,1,294.51,120.84Z"/><circle class="cls-1" cx="328.01" cy="588.42" r="3.95"/><path class="cls-1" d="M236.6,568.7a4,4,0,1,1-3.95-4A4,4,0,0,1,236.6,568.7Z"/><path class="cls-1" d="M334,128.74a3.95,3.95,0,1,1-3.95-4A4,4,0,0,1,334,128.74Z"/><path class="cls-1" d="M508.11,342.57a4,4,0,1,1-3.95-3.95A4,4,0,0,1,508.11,342.57Z"/><path class="cls-2" d="M128.58,117s-8.8,4.54,3.53,23,20.42,27.33,20.42,27.33,2.31,4.34-1.44,5.5-12.35.81-13.5,5.71c-1.2,5.07,2.88,9.25,10.52,12.42s24.13,10.76,25.62,11.45,3.08,2.64.65,3.84-21.18,5.43-18.64,14.21S181,234.58,183.5,235.22s3.16,1.57,3.12,2.89-6.48,2.15-11.76,3.57-11.17,4-9.28,8.94,16.07,14.12,47.8,13.48l14.69-1.26,6.49-13.3c12.18-29.31,8.81-45.86,4.9-49.42s-8.46,1-11.71,5.37-6.37,10.09-7.61,9.65-1.87-1.43-1.56-4,3.63-25.67-3.62-31.24-18,10.35-20,12.17-3.24-.39-3.33-2-1.14-19.76-1.31-28-2.57-13.6-7.73-14.33c-5-.72-7.8,7.42-10.25,10.49s-5.65-.68-5.65-.68-5.32-10.77-18-29-20.26-11.47-20.26-11.47"/><path class="cls-1" d="M229.23,266.19C220,252.78,204,228.68,190.07,208.05s-26.44-39.28-35.62-52.73L143.56,139.4l-3-4.34c-.32-.48-.57-.86-.76-1.13l-.24-.39s.1.12.28.37l.8,1.1c.7,1,1.72,2.44,3,4.28,2.62,3.73,6.38,9.14,11,15.85,9.25,13.41,21.87,32,35.74,52.65S220.32,252.56,229.5,266"/><path class="cls-1" d="M149.6,179.5a5,5,0,0,1,1.05.16c.68.13,1.64.35,2.84.63,2.38.57,5.65,1.44,9.24,2.46l9.18,2.65,2.79.79a4.43,4.43,0,0,1,1,.33,5,5,0,0,1-1.05-.16c-.67-.13-1.64-.35-2.83-.64-2.38-.6-5.64-1.51-9.23-2.53l-9.19-2.58-2.8-.77A4.69,4.69,0,0,1,149.6,179.5Z"/><path class="cls-1" d="M176.6,185.46c-.12,0,1.37-6.84,3.33-15.23s3.66-15.16,3.78-15.13-1.37,6.85-3.33,15.24S176.73,185.49,176.6,185.46Z"/><path class="cls-1" d="M196.48,218.1a4.64,4.64,0,0,1,.49-1c.38-.69.87-1.55,1.45-2.57,1.22-2.18,2.9-5.19,4.62-8.58s3.2-6.52,4.25-8.78l1.23-2.69a5.29,5.29,0,0,1,.51-1,6.44,6.44,0,0,1-.34,1c-.25.65-.62,1.59-1.11,2.75-1,2.3-2.39,5.45-4.13,8.85s-3.46,6.4-4.75,8.54c-.66,1.07-1.19,1.92-1.58,2.5A6.18,6.18,0,0,1,196.48,218.1Z"/><path class="cls-1" d="M170.87,218.07a4.73,4.73,0,0,1,1-.1l2.73-.1c2.31-.07,5.5-.13,9-.18s6.71-.05,9,0l2.73,0a4.32,4.32,0,0,1,1,.08,4.91,4.91,0,0,1-1,.1l-2.73.11c-2.3.06-5.49.13-9,.17s-6.71.06-9,0l-2.74,0A3.68,3.68,0,0,1,170.87,218.07Z"/><path class="cls-1" d="M184.75,249.11A7.58,7.58,0,0,1,186,249l3.5-.14c3-.11,7-.22,11.55-.32s8.6-.16,11.56-.18h3.51a5.41,5.41,0,0,1,1.28.06,6.92,6.92,0,0,1-1.28.11l-3.5.15c-3,.11-7,.22-11.56.32s-8.6.16-11.55.18H186A7.43,7.43,0,0,1,184.75,249.11Z"/><path class="cls-1" d="M216.66,248.2a7.87,7.87,0,0,1,.58-1.25c.45-.85,1-2,1.73-3.33,1.45-2.81,3.44-6.71,5.52-11.07s3.86-8.36,5.13-11.26l1.51-3.44a8.12,8.12,0,0,1,.6-1.24,8,8,0,0,1-.44,1.31c-.31.83-.77,2-1.37,3.5-1.2,2.93-2.93,7-5,11.33s-4.12,8.25-5.65,11c-.76,1.39-1.4,2.51-1.85,3.27A8.49,8.49,0,0,1,216.66,248.2Z"/><path class="cls-3" d="M605.42,381.53c-15.66-13.66-17.13-36-14.34-55.69.47-3.28.48-6.79,2.36-9.52s5.75-4.3,8.55-2.59c2.32,1.41,3.08,4.37,4.2,6.88a19.35,19.35,0,0,0,6.93,8.21c2,1.31,4.5,2.26,6.69,1.34,3-1.26,3.77-5.15,4.11-8.43l1.86-18.33c.33-3.28.68-6.63,2-9.63s3.92-5.64,7.13-6.18,6.87,1.67,7.19,5a31.35,31.35,0,0,1-.35,4.09c-.06,1.37.41,2.95,1.67,3.46s2.67-.26,3.76-1.11c3.73-3,6.49-7,9.09-11s5.15-8.12,8.61-11.4,8-5.68,12.73-5.44,9.41,3.68,10.1,8.41-2.51,9.15-5.85,12.57A73.37,73.37,0,0,1,665.1,305a6.09,6.09,0,0,0-2.84,2.47c-1,2.11.89,4.5,3,5.45,2.35,1.07,5,1.11,7.55,1.68s5.17,2,5.87,4.52c1,3.5-2.19,6.7-5.2,8.71a62.94,62.94,0,0,1-19.69,8.7c-2.51.62-5.13,1.12-7.25,2.61s-3.62,4.3-2.69,6.73,3.86,3.5,6.43,3.31,5-1.33,7.49-2c4.68-1.22,10.46-.28,12.93,3.92,1.62,2.76,1.4,6.34.11,9.29a23.83,23.83,0,0,1-5.84,7.56A63.36,63.36,0,0,1,636,384c-10.84,2.49-20.62,2.43-30.59-2.48"/><path class="cls-1" d="M611.84,369.7a296.88,296.88,0,0,1,15.06-30.35q2.22-3.93,4.36-7.75c1.44-2.54,2.86-5.06,4.41-7.44A144.62,144.62,0,0,1,645.33,311c3.27-4,6.53-7.75,9.59-11.2s6-6.6,8.8-9.36a116,116,0,0,1,14.14-12c1.77-1.29,3.18-2.24,4.14-2.87l1.1-.72a2.4,2.4,0,0,1,.39-.22l-.35.28-1.07.76c-.94.66-2.33,1.65-4.08,3a124.88,124.88,0,0,0-14,12.16c-2.76,2.77-5.67,5.94-8.72,9.39s-6.29,7.18-9.54,11.22a149.88,149.88,0,0,0-9.6,13.13c-1.53,2.37-2.94,4.87-4.38,7.42l-4.35,7.75a300.34,300.34,0,0,0-15.07,30.27"/><path class="cls-1" d="M635.84,324.15a6.79,6.79,0,0,1-.17-1.43c-.07-.93-.14-2.26-.19-3.92-.11-3.31-.11-7.89-.09-12.94s0-9.62-.2-12.92c-.08-1.65-.16-3-.22-3.91a6.61,6.61,0,0,1,0-1.44,7.09,7.09,0,0,1,.27,1.42c.13.91.27,2.25.4,3.9.28,3.31.41,7.89.38,12.95s-.06,9.49-.08,12.93v3.92A7.1,7.1,0,0,1,635.84,324.15Z"/><path class="cls-1" d="M678.81,320.82a9,9,0,0,1-1.7,0c-1.09,0-2.67-.06-4.62,0-3.9,0-9.3.19-15.23.66s-11.3,1.14-15.16,1.73c-1.94.28-3.49.55-4.57.73a9,9,0,0,1-1.69.23,9.67,9.67,0,0,1,1.64-.46c1.07-.25,2.62-.59,4.55-.93,3.85-.7,9.22-1.43,15.18-1.92a149.71,149.71,0,0,1,15.28-.48c2,0,3.54.15,4.63.24A9,9,0,0,1,678.81,320.82Z"/><path class="cls-1" d="M612.45,369a2.19,2.19,0,0,1-.24-.54l-.55-1.6c-.48-1.4-1.12-3.43-1.87-5.95-1.51-5.05-3.38-12.08-5.34-19.87s-3.76-14.84-5.17-19.9l-1.68-6-.45-1.64a2.27,2.27,0,0,1-.11-.58,2,2,0,0,1,.23.54c.15.44.33,1,.56,1.6.47,1.4,1.11,3.43,1.86,5.95,1.52,5.05,3.39,12.08,5.34,19.87s3.76,14.84,5.17,19.91l1.68,6,.45,1.64A2.17,2.17,0,0,1,612.45,369Z"/><path class="cls-1" d="M670.37,357a2.78,2.78,0,0,1-.58.16l-1.69.37-6.2,1.3c-5.24,1.1-12.46,2.69-20.43,4.47s-15.21,3.31-20.47,4.29c-2.64.5-4.77.88-6.25,1.11l-1.7.26a2.1,2.1,0,0,1-.6,0,2,2,0,0,1,.58-.17l1.68-.37,6.2-1.29c5.24-1.1,12.46-2.69,20.43-4.47s15.21-3.31,20.48-4.3c2.63-.49,4.76-.87,6.24-1.1l1.71-.26C670.16,357,670.36,357,670.37,357Z"/><path class="cls-1" d="M484.78,146.9c2.52-14.46,9.42-35.61,17.68-47.75s21-21.78,35.54-23.8,30.59,4.81,37.14,18c3.51,7,4.16,15.14,6.72,22.59s8.17,14.88,16,15.48c7,.53,13.65-4.48,20.48-3.15,8.91,1.74,12.35,12.71,12.4,21.78s-1.24,19.15,4.33,26.3c4.56,5.86,12.38,7.88,18.67,11.8,13.62,8.5,19.45,26.05,18.07,42s-8.74,30.8-16.57,44.82a349.83,349.83,0,0,0-26.45-66.5c-6.32-12.1-17.85-22.4-28.06-31.47-15.67-13.92-50.08-20.56-70.88-23.12s-24.49-3.11-45.09-7"/><path class="cls-4" d="M346,163.94c-51.48,3.74-107.69,10.56-148.9,26.38l13,88.08S290,249.81,355,251.79Z"/><g class="cls-5"><path class="cls-6" d="M346,163.94c-51.48,3.74-107.69,10.56-148.9,26.38l13,88.08S290,249.81,355,251.79Z"/></g><path class="cls-4" d="M342.32,240.17a1.87,1.87,0,0,1-.49.1l-1.46.2-5.62.7c-2.44.29-5.43.65-8.89,1.15s-7.4,1-11.74,1.71c-17.37,2.69-41.27,7.12-67.25,13.84-9,2.33-17.72,4.73-25.69,7.23l-.39.12-.06-.4c-2.78-20.2-5.48-37.61-7.54-50-1.06-6.14-1.9-11-2.49-14.45-.29-1.66-.51-2.95-.67-3.87-.07-.41-.12-.74-.17-1a1.45,1.45,0,0,1,0-.34,1.54,1.54,0,0,1,.09.33c.06.26.13.58.22,1,.19.91.46,2.2.79,3.84.67,3.36,1.6,8.26,2.69,14.43,2.19,12.33,5,29.73,7.8,49.93l-.45-.28c8-2.52,16.68-4.94,25.72-7.27a657.35,657.35,0,0,1,67.36-13.64c4.34-.69,8.3-1.15,11.76-1.61s6.46-.78,8.9-1l5.64-.57,1.47-.13Z"/><path class="cls-4" d="M344.07,218.76s-.2-.61-.6-1.75a18.47,18.47,0,0,0-2.65-4.55,23.22,23.22,0,0,0-6.25-5.48c-.67-.45-1.45-.77-2.22-1.18a20.78,20.78,0,0,0-2.52-.91,13.88,13.88,0,0,0-5.72-.56,12.06,12.06,0,0,0-5.84,2.3,19.6,19.6,0,0,0-4.66,5.07c-2.71,4-4.47,8.89-6.55,14a17.44,17.44,0,0,1-4.84,6.94,9.18,9.18,0,0,1-4,1.93,8.06,8.06,0,0,1-4.52-.53c-5.87-2.32-8.48-9.07-14.4-11.13a11.6,11.6,0,0,0-8.79.72,11.11,11.11,0,0,0-3.49,2.69,18.07,18.07,0,0,0-2.32,3.73c-1.32,2.61-2.32,5.51-4.55,7.56a6.81,6.81,0,0,1-4,1.8,7.76,7.76,0,0,1-4.18-.9,15,15,0,0,1-5.75-5.65,49,49,0,0,1-3-6.94,33.59,33.59,0,0,0-3-6.26,12.7,12.7,0,0,0-4.61-4.28,11.93,11.93,0,0,0-10.56-.3,17.82,17.82,0,0,0-6.7,4.83,13,13,0,0,0-2.51,4.59c-.35,1.16-.41,1.8-.46,1.79a8.69,8.69,0,0,1,.32-1.83,12.71,12.71,0,0,1,2.44-4.73,17.78,17.78,0,0,1,6.75-5,12.34,12.34,0,0,1,11,.22,13,13,0,0,1,4.83,4.42,32.66,32.66,0,0,1,3.11,6.36,47.19,47.19,0,0,0,3,6.82,14.39,14.39,0,0,0,5.5,5.39,7.16,7.16,0,0,0,3.82.81,6,6,0,0,0,3.59-1.64c2.06-1.86,3.06-4.7,4.39-7.35a18.2,18.2,0,0,1,2.41-3.89,11.76,11.76,0,0,1,3.7-2.86,12.32,12.32,0,0,1,9.35-.76c3.16,1,5.42,3.47,7.51,5.66s4.23,4.4,6.92,5.5a7.37,7.37,0,0,0,4.13.49,8.52,8.52,0,0,0,3.72-1.78,16.8,16.8,0,0,0,4.66-6.67c2.07-5,3.88-10,6.66-14a19.85,19.85,0,0,1,4.84-5.18,12.61,12.61,0,0,1,6.1-2.36,14.36,14.36,0,0,1,5.91.63,21.68,21.68,0,0,1,2.57,1,23.87,23.87,0,0,1,2.25,1.23,23,23,0,0,1,6.27,5.65,17.62,17.62,0,0,1,2.56,4.67c.21.58.28,1,.37,1.34A2.65,2.65,0,0,1,344.07,218.76Z"/><path class="cls-4" d="M207.63,207.2c0,.2-.63.49-1.49.65s-1.6.14-1.64,0,.64-.49,1.5-.66S207.6,207,207.63,207.2Z"/><path class="cls-4" d="M209.91,223.29c.08.18-.42.59-1.13.92s-1.35.45-1.43.27.42-.6,1.13-.92S209.82,223.11,209.91,223.29Z"/><path class="cls-4" d="M212.75,240.86c.07.19-.45.55-1.16.79s-1.33.3-1.4.11.46-.54,1.16-.79S212.69,240.68,212.75,240.86Z"/><path class="cls-4" d="M216.17,258.14c.06.19-.53.55-1.32.79s-1.47.3-1.53.11.53-.55,1.32-.8S216.11,258,216.17,258.14Z"/><path class="cls-4" d="M313.26,175.13a7.29,7.29,0,0,1,1.68-.38c1.11-.19,2.73-.43,4.79-.72,4.13-.58,10-1.35,17-2.21l.32,0,0,.33c.55,5.91,1.18,12.72,1.85,19.94l0,.3,0,.35-.35,0-23,2.82-.31,0,0-.31c-.65-6-1.18-11.07-1.57-14.7-.16-1.69-.3-3-.39-4.06a8.23,8.23,0,0,1-.09-1.4,12.65,12.65,0,0,1,.25,1.48c.14,1,.33,2.4.56,4.1.46,3.58,1.09,8.55,1.85,14.51l-.34-.26,23-2.94-.32.4,0-.3c-.64-7.23-1.24-14-1.77-20l.36.29Z"/><path class="cls-4" d="M334.64,178.64c0,.21-4,.21-8.8.73s-8.7,1.33-8.75,1.12,3.78-1.33,8.68-1.84S334.65,178.45,334.64,178.64Z"/><path class="cls-4" d="M334.89,183.8c0,.21-3.69.35-8.21.79s-8.17,1-8.21.79,3.57-1.07,8.14-1.51S334.89,183.61,334.89,183.8Z"/><path class="cls-4" d="M329.37,188.31c0,.19-2.07.62-4.68.95s-4.75.44-4.78.24,2.08-.62,4.69-.95S329.35,188.11,329.37,188.31Z"/><path class="cls-4" d="M597,189.85c-50.41-15.36-92.94-28.48-150-28.12l-8.73,89.75c59.31,5.25,79.13,9.14,133.9,29Z"/><g class="cls-5"><path class="cls-6" d="M597,189.85c-50.41-15.36-92.94-28.48-150-28.12l-8.73,89.75c59.31,5.25,79.13,9.14,133.9,29Z"/></g><path class="cls-4" d="M482.87,205.29l2.22-19a22.41,22.41,0,0,0-15.55,4.3A23.43,23.43,0,0,0,460,209.37a26.86,26.86,0,0,0,.08,2.82v.07h0l22.25-2.5Z"/><path class="cls-4" d="M505.85,202.17c-2.19-7.07-7.48-13.16-15.84-15.1l-.68-.15-.43-.09c-.42-.08-.85-.14-1.29-.2h-.12l-2.23,19-.52,4.47,21,7.67h0a24.3,24.3,0,0,0,1.09-4.88A26,26,0,0,0,505.85,202.17Z"/><g class="cls-7"><path class="cls-8" d="M505.85,202.17c-2.19-7.07-7.48-13.16-15.84-15.1l-.68-.15-.43-.09c-.42-.08-.85-.14-1.29-.2h-.12l-2.23,19-.52,4.47,21,7.67h0a24.3,24.3,0,0,0,1.09-4.88A26,26,0,0,0,505.85,202.17Z"/></g><path class="cls-4" d="M483.18,212.27l-22.24,2.5c.93,10.77,8.79,19.71,19.35,21s20.45-5.53,23.91-15.84l-21-7.66"/><path class="cls-4" d="M577.51,207a11.29,11.29,0,0,1-2-.79c-1.24-.56-3-1.35-5.28-2.29a164.1,164.1,0,0,0-17.89-6.28,161.36,161.36,0,0,0-18.52-4.1c-2.4-.39-4.35-.67-5.69-.85a12.7,12.7,0,0,1-2.09-.36,11.7,11.7,0,0,1,2.12.08c1.36.09,3.32.3,5.74.62a134,134,0,0,1,36.53,10.42c2.23,1,4,1.86,5.21,2.5A13.8,13.8,0,0,1,577.51,207Z"/><path class="cls-4" d="M576,216.33a12.6,12.6,0,0,1-2-.79c-1.24-.57-3-1.35-5.29-2.29A161.25,161.25,0,0,0,550.84,207a163.86,163.86,0,0,0-18.52-4.11c-2.4-.38-4.34-.67-5.69-.84a12.7,12.7,0,0,1-2.09-.36,11.71,11.71,0,0,1,2.12.08c1.36.09,3.32.3,5.74.62A134.66,134.66,0,0,1,551,206.27a136.3,136.3,0,0,1,17.9,6.51c2.22,1,4,1.86,5.2,2.5A11.85,11.85,0,0,1,576,216.33Z"/><path class="cls-4" d="M574.45,225.7a12.19,12.19,0,0,1-2-.8c-1.24-.56-3-1.34-5.28-2.28a163.38,163.38,0,0,0-17.9-6.29,166.14,166.14,0,0,0-18.51-4.1c-2.4-.38-4.35-.67-5.7-.85A11,11,0,0,1,523,211a12.89,12.89,0,0,1,2.11.08c1.36.1,3.32.3,5.74.63a134.2,134.2,0,0,1,36.54,10.42c2.22,1,4,1.86,5.2,2.5A10.38,10.38,0,0,1,574.45,225.7Z"/><path class="cls-4" d="M571.4,235.07a11.49,11.49,0,0,1-1.9-.8c-1.2-.56-3-1.34-5.12-2.28A157,157,0,0,0,547,225.71a155.11,155.11,0,0,0-18-4.11c-2.33-.39-4.22-.67-5.53-.85a10.66,10.66,0,0,1-2-.36,11.05,11.05,0,0,1,2.06.08c1.32.09,3.23.3,5.58.63a127.21,127.21,0,0,1,35.46,10.43c2.15,1,3.87,1.85,5,2.49A10.47,10.47,0,0,1,571.4,235.07Z"/><path class="cls-4" d="M564.76,242.54a8.82,8.82,0,0,1-1.72-.68l-4.59-2a125.4,125.4,0,0,0-15.51-5.7,127.6,127.6,0,0,0-16.18-3.35l-5-.68a9.76,9.76,0,0,1-1.82-.33,9.34,9.34,0,0,1,1.85,0c1.19.07,2.9.23,5,.47a96.24,96.24,0,0,1,31.85,9.08c1.91.92,3.45,1.69,4.5,2.25A9,9,0,0,1,564.76,242.54Z"/><path class="cls-4" d="M542.36,243.6a22.88,22.88,0,0,1-3.58-.75c-2.2-.51-5.24-1.16-8.63-1.75s-6.48-1-8.72-1.32a20.76,20.76,0,0,1-3.61-.63,17.21,17.21,0,0,1,3.67.12c2.25.19,5.37.53,8.78,1.12a80.49,80.49,0,0,1,8.64,2A15.63,15.63,0,0,1,542.36,243.6Z"/><path class="cls-4" d="M455.7,172.37s.38,0,1.15-.06l3.47-.12c3.07-.07,7.5,0,13.17.3a209.38,209.38,0,0,1,46.24,8.28l.26.07,0,.27c-3.47,19.89-7.6,43.54-12,68.85-.18,1-.36,2-.54,3l-.06.39-.39-.1a302.48,302.48,0,0,0-30.87-6.37c-9.95-1.53-19.46-2.61-28.3-3.17l-.34,0,0-.34c2.43-21.22,4.46-39,5.9-51.52.72-6.19,1.3-11.07,1.69-14.44.2-1.64.36-2.91.46-3.8.06-.4.1-.72.13-1a1.1,1.1,0,0,1,.06-.31s0,.12,0,.35-.06.58-.1,1c-.09.9-.22,2.19-.39,3.86-.35,3.38-.87,8.3-1.53,14.52-1.35,12.48-3.27,30.21-5.57,51.38l-.3-.36c8.88.54,18.4,1.6,28.37,3.12a299.14,299.14,0,0,1,31,6.36l-.45.29q.27-1.51.54-3.06c4.45-25.3,8.62-48.94,12.12-68.82l.21.34a214.38,214.38,0,0,0-46.07-8.5c-5.64-.38-10.11-.48-13.11-.47h-3.45C456.12,172.39,455.7,172.37,455.7,172.37Z"/><polyline class="cls-4" points="400.65 355.78 449.81 366.66 457.32 355.78 456.11 341.76 448.63 334.93 422.88 334.93 398.84 356.59"/><g class="cls-7"><polyline class="cls-8" points="400.65 355.78 449.81 366.66 457.32 355.78 456.11 341.76 448.63 334.93 422.88 334.93 398.84 356.59"/></g><path class="cls-9" d="M475.61,254.53l62-8.35,9.77-2.76s22.36-4.91,24.45-5.66c2.41-.86,3.41.1,3.67,1,.4,1.42-1,3-3,3.81-.71.28-12,4.21-12,4.21a29.19,29.19,0,0,1,3.83,1.11c2.71.92,5.32,4.42,6.62,8.49s1.31,5.34-.25,5.92a2.11,2.11,0,0,1-1.8-.25,4.2,4.2,0,0,1-1.87-2.33c-2.17-6.51-6.24-7-6.24-7l-1.28.36s4.2,2.93,4.13,6.48a4.15,4.15,0,0,1-.33,1.52,5.37,5.37,0,0,1-6,7.06c-.9-.16-1.86-.68-2-1.58a2.83,2.83,0,0,1,.29-1.39,4.71,4.71,0,0,0,.22-.73l-3.72.51s-8.42.7-12,1.41L482,283.85a15,15,0,0,1-18.82-10.32h0A15,15,0,0,1,475.61,254.53Z"/><path class="cls-9" d="M539.1,247.76a3.14,3.14,0,0,0,2.67,2.48c1.28.26,2.61.09,3.9.26,3.87.52,6.87,4,10.76,4.38.54,0,1.23-.07,1.39-.59s-.27-.94-.65-1.27l-9.68-8.56"/><path class="cls-10" d="M547.49,244.46a5.32,5.32,0,0,1,1.14.82c.71.56,1.71,1.4,2.93,2.44l4.29,3.68,1.23,1.07c.37.37,1,.69,1.13,1.58a1.12,1.12,0,0,1-.67,1,2.26,2.26,0,0,1-1,.17,8.49,8.49,0,0,1-1.87-.37c-2.44-.8-4.32-2.27-6.21-3.15a10,10,0,0,0-2.76-.92c-.9-.13-1.78-.11-2.6-.17a4.5,4.5,0,0,1-3.53-1.52c-.58-.79-.46-1.38-.43-1.36a3.53,3.53,0,0,0,.65,1.17,4.39,4.39,0,0,0,3.34,1.19c.78,0,1.67,0,2.65.09a9.67,9.67,0,0,1,3,.91c2,.88,3.88,2.33,6.14,3a8,8,0,0,0,1.69.35c.53,0,1-.16.94-.45s-.44-.71-.86-1.07l-1.22-1.09-4.18-3.8c-1.18-1.09-2.13-2-2.78-2.61A5.34,5.34,0,0,1,547.49,244.46Z"/><path class="cls-10" d="M559.39,252.94a5.37,5.37,0,0,1,2.44,0,4.15,4.15,0,0,1,2.12,1.46,10.59,10.59,0,0,1,1.53,2.9,16.26,16.26,0,0,0,1.41,3.09,5.46,5.46,0,0,0,2,2,2.1,2.1,0,0,0,1.9,0,1.35,1.35,0,0,0,.55-.43s-.23.11-.62.26a2,2,0,0,1-1.67-.17,5.43,5.43,0,0,1-1.82-1.89,19,19,0,0,1-1.34-3,10.1,10.1,0,0,0-1.63-3,4.3,4.3,0,0,0-2.38-1.51,4,4,0,0,0-1.9.06C559.58,252.77,559.37,252.92,559.39,252.94Z"/><path class="cls-10" d="M573.33,242.26a13.12,13.12,0,0,0-2.27.77l-5.39,2-5.42,1.9a12.6,12.6,0,0,0-2.23.85,10.91,10.91,0,0,0,2.33-.53c1.42-.4,3.36-1,5.48-1.77s4-1.52,5.36-2.12A11.23,11.23,0,0,0,573.33,242.26Z"/><path class="cls-10" d="M557.74,256.4s.17.22.49.57a2.21,2.21,0,0,1,.7,1.7,1.16,1.16,0,0,1-.73.92,5.81,5.81,0,0,1-1.5.42,2.64,2.64,0,0,0-1.67.89,2.32,2.32,0,0,0-.29,2.05,2.61,2.61,0,0,0,1.4,1.49,3.23,3.23,0,0,0,1.87.28,10.79,10.79,0,0,0,2.88-1.07,6.51,6.51,0,0,0,1.66-1.24,1.38,1.38,0,0,0,.38-.66s-.17.21-.52.53a6.89,6.89,0,0,1-1.68,1.07,11.24,11.24,0,0,1-2.79.94,2.56,2.56,0,0,1-2.74-1.49,1.83,1.83,0,0,1,.2-1.62,2.35,2.35,0,0,1,1.4-.75,5.87,5.87,0,0,0,1.59-.49,1.55,1.55,0,0,0,.88-1.23,2.32,2.32,0,0,0-.91-1.88A2.08,2.08,0,0,0,557.74,256.4Z"/><path class="cls-10" d="M556.42,264.14s-.27,0-.62.29a2.07,2.07,0,0,0-.69,1.72,2.77,2.77,0,0,0,1.64,2.21,4.5,4.5,0,0,0,3.37,0,5.43,5.43,0,0,0,2.68-2,5.28,5.28,0,0,0,.9-2.59,5.06,5.06,0,0,0-.2-1.83c-.14-.41-.26-.62-.29-.61a8.57,8.57,0,0,1,.15,2.41,5.12,5.12,0,0,1-.92,2.37A5.23,5.23,0,0,1,560,268a4.22,4.22,0,0,1-3,0,2.47,2.47,0,0,1-1.49-1.85,2,2,0,0,1,.49-1.55C556.21,264.26,556.43,264.17,556.42,264.14Z"/><path class="cls-10" d="M546.09,259s0-.44-.4-1.07a4.49,4.49,0,0,0-2.26-1.85l0,.42a14.47,14.47,0,0,0,1.42-.78,10.25,10.25,0,0,0,3.89-4,26,26,0,0,1-4.14,3.6,15.15,15.15,0,0,1-1.37.78l-.48.25.51.17a4.78,4.78,0,0,1,2.18,1.58C545.87,258.67,546,259.06,546.09,259Z"/><path class="cls-10" d="M565.41,252.41c-.09-.09-.74.63-.81,1.78s.47,1.95.57,1.87-.18-.84-.1-1.84S565.53,252.48,565.41,252.41Z"/><path class="cls-9" d="M275.86,274s-9.06-14.69-10.67-15.93S249.24,251.57,248,252s-18.62,3.36-16.62,5.42,14.12-.17,14.12-.17l1.63.81s-10.48,1.67-12.68,2.94c-2,1.18-1.34,3.66.58,3.46s11-2,11.56-1.58-9.9,2.45-11,3.12c-1.51.89-1.67,3.58.24,3.45,1.13-.08,11-2.62,11-2.62s-7.81,3-8.53,3.69c-1.18,1.12-.25,2.82,1.44,2.44,1.17-.25,6.68-2.88,8.24-3.22,0,0,1.45.39,2.77,3.33.62,1.37,3.42,9.93,8.54,9.82,4.54-.1,9,3.64,9,3.64Z"/><path class="cls-10" d="M231.43,257.42a8.19,8.19,0,0,0,3.17.87,19.05,19.05,0,0,0,3.58.15c1.33-.15,2.79-.35,4.31-.56l3.25-.48h-.2c4.29,1.52,7.43,2.52,7.5,2.35s-3-1.46-7.24-3.09l-.08,0h-.11l-3.22.44-4.26.62a23.91,23.91,0,0,1-3.47,0A31.46,31.46,0,0,0,231.43,257.42Z"/><path class="cls-9" d="M269.07,272.26c-1.06,1-2.8.74-4,0s-2.19-1.88-3.37-2.72c-3.54-2.49-8.63-1.9-12.05-4.56-.47-.37-.94-1-.68-1.52s.92-.56,1.48-.54l14.32.34"/><path class="cls-10" d="M264.73,263.25a6.15,6.15,0,0,0-1.54-.19c-1-.08-2.44-.16-4.22-.24l-6.26-.23-1.81-.06a2.84,2.84,0,0,0-2.11.43,1.22,1.22,0,0,0-.23,1.34,2.5,2.5,0,0,0,.72.93,9,9,0,0,0,1.8,1.1c2.58,1.2,5.22,1.42,7.42,2.13a10.7,10.7,0,0,1,2.94,1.33c.83.57,1.52,1.26,2.23,1.83a5.07,5.07,0,0,0,4,1.42c1.06-.2,1.4-.78,1.37-.78a4.29,4.29,0,0,1-1.41.46,4.85,4.85,0,0,1-3.62-1.55,29.34,29.34,0,0,0-2.22-1.93,10.76,10.76,0,0,0-3.1-1.5c-2.27-.77-4.91-1-7.29-2.14a8.56,8.56,0,0,1-1.63-1c-.46-.37-.69-.88-.44-1.07s.9-.24,1.52-.22l1.81,0,6.26.06c1.79,0,3.23,0,4.23,0A5.33,5.33,0,0,0,264.73,263.25Z"/><path class="cls-4" d="M346.45,599.26l-3.31,36.43-10.93,28.06a3.76,3.76,0,0,0,2.38,4.94h0a3.72,3.72,0,0,0,3.38-.59c6.15-4.69,28.7-22,28.79-24.72.11-3.1,6-38.2,6-38.2Z"/><g class="cls-11"><path class="cls-6" d="M334.59,668.69,367,640.93l-.17,1.54a5.69,5.69,0,0,1-1.75,3.48c-2.61,2.45-10,9-27,22.16a3.74,3.74,0,0,1-3.49.58Z"/></g><g class="cls-11"><path class="cls-6" d="M360.92,628.35a2.26,2.26,0,0,0-.95,2.87,2.17,2.17,0,0,0,2.84,1,2.39,2.39,0,0,0,1-3,2.25,2.25,0,0,0-3.07-.68"/></g><path d="M344.7,653.75c-.21.08-.82-1.92-2.86-3.19s-4.07-1-4.09-1.27.47-.33,1.33-.35a6,6,0,0,1,5.38,3.46C344.8,653.19,344.8,653.73,344.7,653.75Z"/><path d="M341.56,658.33c-.19.13-1.22-1.18-3-1.93s-3.46-.63-3.5-.87,1.76-.77,3.82.13S341.76,658.25,341.56,658.33Z"/><path d="M350.23,648.07c-.19.15-1.76-1.88-4.49-3.3s-5.27-1.63-5.25-1.87,2.73-.4,5.63,1.16S350.42,648,350.23,648.07Z"/><path d="M352.17,637.08c-.13.2-2-.87-4.64-1.26s-4.74,0-4.8-.23,2.13-1,4.93-.56S352.3,636.92,352.17,637.08Z"/><path d="M353.41,626.41c-.14.19-2-1.25-4.79-1.44s-4.86.88-5,.66.4-.49,1.29-.88a8.16,8.16,0,0,1,7.32.58C353.09,625.86,353.47,626.33,353.41,626.41Z"/><path d="M348.91,623a3.32,3.32,0,0,1,.11-1.38,9.6,9.6,0,0,1,1.5-3.48,4.25,4.25,0,0,1,2.05-1.81,1.52,1.52,0,0,1,1.65.52,2.5,2.5,0,0,1,.39,1.71,5.31,5.31,0,0,1-5.17,4.35,6.15,6.15,0,0,1-5.63-3.88,2.11,2.11,0,0,1,.1-1.78,1.48,1.48,0,0,1,1.62-.6,5.32,5.32,0,0,1,2.25,1.52,10.57,10.57,0,0,1,2.16,3.11,3.32,3.32,0,0,1,.42,1.32,17.31,17.31,0,0,0-3-4,4.84,4.84,0,0,0-2-1.28.78.78,0,0,0-.88.33,1.43,1.43,0,0,0,0,1.17,5.47,5.47,0,0,0,4.92,3.3,4.6,4.6,0,0,0,4.44-3.62,1.77,1.77,0,0,0-.22-1.21.81.81,0,0,0-.9-.3,3.92,3.92,0,0,0-1.77,1.51A14.44,14.44,0,0,0,348.91,623Z"/><path d="M380,620.63l27.26-215.87-8.72-50.18-51.41,2.72-6.4,259.34a4,4,0,0,0,3.2,4l29.94,4.61A5.36,5.36,0,0,0,380,620.63Z"/><path d="M406.43,412,456,461.07l-71.34,17.35,5.08,36,96.56-13.14a30.36,30.36,0,0,0,20.55-12.34h0a30.38,30.38,0,0,0,.47-34.88L432.1,343.62l-33.61,11Z"/><path class="cls-1" d="M403.69,399.51c.19,0,1,2.72,1.72,6.17s1.21,6.28,1,6.32-1-2.72-1.73-6.17S403.49,399.55,403.69,399.51Z"/><path class="cls-1" d="M398.37,376.67a15.14,15.14,0,0,1,1.15,3.34c.61,2.1,1.37,5,2.08,8.27s1.23,6.23,1.55,8.39a15.27,15.27,0,0,1,.35,3.52,18.83,18.83,0,0,1-.85-3.43c-.5-2.39-1.1-5.21-1.76-8.32s-1.33-5.92-1.86-8.3A19.6,19.6,0,0,1,398.37,376.67Z"/><path class="cls-1" d="M401.56,372.44c-.08-.05.7-.68,2-.22a2.36,2.36,0,0,1,1.5,1.78,2.56,2.56,0,0,1-1.12,2.62,2.48,2.48,0,0,1-2.85-.28,2.11,2.11,0,0,1-.65-2.24,2.15,2.15,0,0,1,.93-1.24c.33-.18.54-.18.55-.14s-.76.39-1,1.5a1.61,1.61,0,0,0,.57,1.61,1.9,1.9,0,0,0,2.05.18,2,2,0,0,0,.84-1.91,1.85,1.85,0,0,0-1.05-1.41A3.7,3.7,0,0,0,401.56,372.44Z"/><path class="cls-6" d="M470.61,469.47c-.15.17-2.94-2.41-7-4.72s-7.61-3.49-7.54-3.71,3.81.69,7.91,3.09S470.75,469.36,470.61,469.47Z"/><path class="cls-4" d="M363.44,207.42,335,221.17l12.27,85.65-4.82,38.44a15,15,0,0,0,5,13.18h0l46-.91,32.2-17.7,14.78-2.5-6-29.26,2.71-41.51,33.65,18a11.79,11.79,0,0,0,8.46,1l61.69-16-3.2-23.77-55.85,6.31-42.53-37.58-31.66-7.12L402,198.1H369.58l-2.27,1.7A6.84,6.84,0,0,0,365,203Z"/><path class="cls-4" d="M335,221.17s-9.34,5.91-12.82,16.72c-3.26,10.1-10.6,51-10.6,51l-32.34-20.07-18.64,19.59,43.12,38a21.91,21.91,0,0,0,24,3.31h0a21.93,21.93,0,0,0,12.21-16.79l5.29-38.75Z"/><polygon class="cls-9" points="432.1 343.62 430.1 340.68 408.81 344.61 404.89 353.68 432.1 343.62"/><path class="cls-4" d="M347.45,358.44c19,7.65,39.33,4.84,57.44-4.76,5.47-2.9,10.54-6.51,16-9.36s11.58-5,17.76-4.53,12.4,3.84,14.87,9.51,0,13.4-5.81,15.52l2.06,1.84c8.54-4,12.59-15.48,8.42-23.92-3.2-6.48-9.91-10.35-14.83-15.64-7.24-7.78-8-22.83-8-34.55"/><path d="M389.17,224a6.23,6.23,0,0,1-1.4.08,5.38,5.38,0,0,0-3.37,1.55,8,8,0,0,0-1.68,5.44,18.07,18.07,0,0,0,1.54,7.28l.54,1.19-1.05-.77a56.44,56.44,0,0,1-7.17-6.35,52.88,52.88,0,0,1-11-16.88,38.47,38.47,0,0,1-1.79-5.87,13.66,13.66,0,0,1-.32-2.23,66.54,66.54,0,0,0,2.59,7.91A55.63,55.63,0,0,0,377.1,231.9a58.28,58.28,0,0,0,7.06,6.3l-.51.42a16.43,16.43,0,0,1-1.19-3.9,17.51,17.51,0,0,1-.32-3.68,8.18,8.18,0,0,1,2-5.72,5.36,5.36,0,0,1,3.66-1.48A6.11,6.11,0,0,1,389.17,224Z"/><path class="cls-4" d="M390.88,224c2.34-1,5.81.48,7.5,2.4,1.11,1.27,1.73,3,3.2,3.86s6.09,1.48,7.44.45c0,0,.82-4,1.25-5.59a124.33,124.33,0,0,0,3.17-19c-4.48-2.17-3.25-5-11.3-4.49,0,0,2,5.95.28,11.36"/><path d="M402.42,213c-.08,0,.29-1.07.47-3a22.42,22.42,0,0,0-1-8.23l-.1-.33.34,0a14,14,0,0,1,5.94.53,9.28,9.28,0,0,1,2.75,2,11,11,0,0,0,2.78,1.93l.22.1,0,.24c-.36,3.38-.77,7.06-1.4,10.86-.42,2.48-.92,4.89-1.5,7.18s-1,4.5-1.53,6.59l0,.13-.09.06a4.35,4.35,0,0,1-2.38.58,13.63,13.63,0,0,1-2.23-.14,15.19,15.19,0,0,1-2.07-.45,4.49,4.49,0,0,1-1.83-1,19.28,19.28,0,0,1-2.14-2.93,7.54,7.54,0,0,0-2.19-2,7.72,7.72,0,0,0-4-1.25,9.32,9.32,0,0,0-1.51.21,3.13,3.13,0,0,1,1.5-.42,7.64,7.64,0,0,1,4.21,1.11,7.87,7.87,0,0,1,2.37,2.05,19.35,19.35,0,0,0,2.12,2.81,6.81,6.81,0,0,0,3.62,1.25,12.4,12.4,0,0,0,2.12.11,4,4,0,0,0,2-.46l-.12.19c.47-2.1.92-4.34,1.49-6.62s1.06-4.67,1.47-7.13c.64-3.78,1.06-7.44,1.44-10.81l.19.35a12,12,0,0,1-2.93-2.06,8.53,8.53,0,0,0-2.54-1.89,13.65,13.65,0,0,0-5.67-.58l.24-.35a21.4,21.4,0,0,1,.79,8.43,14.29,14.29,0,0,1-.47,2.26A3.71,3.71,0,0,1,402.42,213Z"/><path d="M449.86,344.1c-.06,0,.06-.55,0-1.59a9.72,9.72,0,0,0-1.37-4.29,14.35,14.35,0,0,0-5.11-4.93,21.64,21.64,0,0,0-9.1-2.5c-3.54-.32-7.44-.13-11.65-.41a43.86,43.86,0,0,1-13.14-2.79,27,27,0,0,1-11.85-8.85,20.44,20.44,0,0,1-3.4-7.13,27.41,27.41,0,0,1-.78-8.09c.21-5.5,1.48-10.71,2.24-15.76a119.8,119.8,0,0,0,1.38-14.67,121,121,0,0,0-5.92-41.21c-.59-1.9-1.13-3.35-1.48-4.34l-.39-1.13a2.16,2.16,0,0,1-.11-.4,1.18,1.18,0,0,1,.18.37l.46,1.11c.39,1,1,2.41,1.61,4.3a114.43,114.43,0,0,1,4.33,16.33,119.55,119.55,0,0,1,2,25,117.33,117.33,0,0,1-1.35,14.76c-.76,5.09-2,10.27-2.22,15.67s1,10.73,4,14.78A26.45,26.45,0,0,0,409.73,327a43.23,43.23,0,0,0,12.93,2.81c4.16.31,8.08.14,11.65.5a21.91,21.91,0,0,1,9.27,2.66,14.44,14.44,0,0,1,5.14,5.14A9.4,9.4,0,0,1,450,342.5a5.67,5.67,0,0,1-.06,1.2A1.55,1.55,0,0,1,449.86,344.1Z"/><path d="M429.09,318.77a15.83,15.83,0,0,1-1.61,1.66c-.52.52-1.18,1.15-2,1.82s-1.7,1.5-2.77,2.29a74.35,74.35,0,0,1-7.68,5.32,86.48,86.48,0,0,1-10.2,5.18A84.74,84.74,0,0,1,394,338.67a74.73,74.73,0,0,1-9.18,1.75c-1.31.2-2.51.27-3.56.36s-2,.13-2.71.14a13.19,13.19,0,0,1-2.3,0,13.78,13.78,0,0,1,2.29-.26c.73-.05,1.64-.12,2.68-.26s2.23-.23,3.53-.47a85.08,85.08,0,0,0,9.08-1.88,92.36,92.36,0,0,0,10.74-3.66,91.19,91.19,0,0,0,10.14-5.09,83.56,83.56,0,0,0,7.71-5.14c1.08-.77,2-1.55,2.82-2.2s1.51-1.23,2.07-1.72A13,13,0,0,1,429.09,318.77Z"/><path d="M420.14,273.15a3.61,3.61,0,0,1-.12.77l-.49,2.17a32.3,32.3,0,0,1-.91,3.39c-.42,1.3-.83,2.81-1.48,4.41-.31.81-.64,1.65-1,2.53s-.79,1.75-1.2,2.68c-.8,1.87-1.86,3.77-2.93,5.78a79.81,79.81,0,0,1-19,22.65c-1.8,1.41-3.48,2.78-5.18,3.89-.84.57-1.63,1.16-2.43,1.65l-2.33,1.39c-1.45.93-2.87,1.59-4.09,2.23a31.11,31.11,0,0,1-3.17,1.49l-2,.86a3.79,3.79,0,0,1-.73.25,3.08,3.08,0,0,1,.67-.39l2-1c.87-.41,1.93-.92,3.11-1.6s2.58-1.36,4-2.31l2.28-1.42c.79-.5,1.57-1.1,2.39-1.67,1.68-1.12,3.34-2.5,5.11-3.91a82.75,82.75,0,0,0,18.84-22.47c1.08-2,2.15-3.86,3-5.7.42-.92.87-1.78,1.22-2.65l1-2.49c.68-1.58,1.12-3.07,1.57-4.36a34.67,34.67,0,0,0,1-3.34c.25-.86.45-1.56.62-2.12A4,4,0,0,1,420.14,273.15Z"/><path d="M361.58,365.41a8.38,8.38,0,0,1-2.54-1.88,19.29,19.29,0,0,1-4.28-6.31,19,19,0,0,1-1.51-7.48,8.37,8.37,0,0,1,.42-3.13c.12,0,0,1.21.09,3.11a21.65,21.65,0,0,0,5.65,13.45C360.7,364.58,361.65,365.31,361.58,365.41Z"/><path d="M360.56,354.6c.21,0-.17,1.84,0,4s.85,3.88.66,4-1.19-1.56-1.38-3.91S360.39,354.53,360.56,354.6Z"/><path d="M346.86,304.88a2.29,2.29,0,0,1-.17-.65c-.09-.52-.21-1.14-.34-1.89-.3-1.76-.69-4.11-1.17-7-1-5.87-2.36-14-4-22.91s-3.3-17-4.51-22.83c-.58-2.84-1.06-5.17-1.42-6.91q-.21-1.12-.36-1.89a2.11,2.11,0,0,1-.07-.67,3.25,3.25,0,0,1,.21.64c.14.5.3,1.12.5,1.85.41,1.62,1,4,1.64,6.87,1.34,5.81,3.05,13.86,4.72,22.8s3,17.07,3.82,23c.42,2.95.74,5.34.94,7,.08.76.15,1.39.2,1.91A2.83,2.83,0,0,1,346.86,304.88Z"/><path d="M435.74,304.88a2.72,2.72,0,0,1-.07-.69c0-.53,0-1.18-.06-2,0-1.71-.05-4.19,0-7.25.05-6.13.32-14.59,1-23.91s1.65-17.73,2.37-23.81c.37-3,.68-5.39.91-7.2.12-.77.21-1.42.29-2a2,2,0,0,1,.15-.67,2.79,2.79,0,0,1,0,.69l-.15,2c-.17,1.82-.4,4.26-.68,7.22-.6,6.09-1.46,14.5-2.16,23.81s-1,17.75-1.24,23.87c-.09,3-.15,5.42-.21,7.24,0,.79-.05,1.44-.07,2A2.4,2.4,0,0,1,435.74,304.88Z"/><path d="M324.7,308.46c-.24.1-2.07-5-5.61-10.46s-7.71-9-7.53-9.14a12.83,12.83,0,0,1,2.72,2.22,37.36,37.36,0,0,1,5.41,6.53,44.88,44.88,0,0,1,3.9,7.52A14.09,14.09,0,0,1,324.7,308.46Z"/><path d="M327.09,302.42a25.51,25.51,0,0,1-1.56-2.7,21.53,21.53,0,0,0-4.8-5.62,30.52,30.52,0,0,0-6.35-3.87,17,17,0,0,1-2.82-1.37,11.1,11.1,0,0,1,3,.9,24.7,24.7,0,0,1,6.61,3.78,19,19,0,0,1,4.79,5.93A9.36,9.36,0,0,1,327.09,302.42Z"/><path class="cls-12" d="M499.53,279.84s-.35-.29-.84-.95a10.05,10.05,0,0,1-1.52-3.14,12.89,12.89,0,0,1-.21-5.18,48.83,48.83,0,0,1,1.41-6.13,43.34,43.34,0,0,1,5-10.25c.78-1.23,1.44-2.2,1.91-2.86s.75-1,.79-1a36.63,36.63,0,0,1-2.26,4.12,51.24,51.24,0,0,0-4.72,10.19,54.64,54.64,0,0,0-1.44,6,12.92,12.92,0,0,0,.05,4.95A19.2,19.2,0,0,0,499.53,279.84Z"/><path class="cls-12" d="M525.83,247.89a3.28,3.28,0,0,1,.42,1,18.32,18.32,0,0,1,.7,2.86,25.57,25.57,0,0,1-4.1,18.56,17,17,0,0,1-1.84,2.3c-.48.5-.76.76-.8.72s.93-1.22,2.21-3.3a28.17,28.17,0,0,0,4-18.21C526.15,249.39,525.7,247.93,525.83,247.89Z"/><path class="cls-12" d="M457.62,344.2c-.11,0-.31-.5-.79-1.22a7.19,7.19,0,0,0-5.65-3.14c-.86,0-1.41.08-1.44,0s.48-.38,1.43-.48a6.32,6.32,0,0,1,6.1,3.4C457.68,343.58,457.7,344.18,457.62,344.2Z"/><path class="cls-12" d="M400.26,337.12c.05.1-1.67.95-4.35,2.48a37.55,37.55,0,0,0-9.45,7.3,20.11,20.11,0,0,0-5,10.62,24.18,24.18,0,0,0,.08,5,4,4,0,0,1-.4-1.3,13.11,13.11,0,0,1-.19-3.71,19.53,19.53,0,0,1,5-11,33.82,33.82,0,0,1,9.74-7.26c1.38-.72,2.52-1.25,3.32-1.59A4.37,4.37,0,0,1,400.26,337.12Z"/><g class="cls-7"><path class="cls-8" d="M380,341.68c-1.32.57-1.2,2.68-.09,3.6a6,6,0,0,0,4.12.88,53.61,53.61,0,0,0,41.15-23.11c-12.56,10.3-29,14.19-44.86,17.78"/></g><g class="cls-7"><path class="cls-8" d="M377.51,327.51c-1.37-2.09-.45-5,1.32-6.81s4.17-2.71,6.42-3.82A40.6,40.6,0,0,0,404,297.67c2.52-5.47,4.44-12.18,10-14.43a54.26,54.26,0,0,1-35.7,42.58"/></g><g class="cls-7"><path class="cls-8" d="M338.09,255.51a141.13,141.13,0,0,1-3.2,45.39c-.74,3.15-1.61,6.32-1.55,9.56a12.72,12.72,0,0,0,4.62,9c2.31-5.31,2.35-10.43,3.32-16.16.88-5.16,2.34-17.19,2.34-17.37.21-10.53-2.28-19.55-6.32-29"/></g><g class="cls-7"><path class="cls-8" d="M364.26,209.92A55.36,55.36,0,0,0,380,239.41c3.07,3,6.89,5.76,11.17,5.62A26.16,26.16,0,0,1,389,228.67a68.12,68.12,0,0,0,11.44,6.22,22.69,22.69,0,0,0,12.77,1.45l2.67-23.08a4.27,4.27,0,0,0-.24-2.58,1.47,1.47,0,0,0-2.2-.52,2.13,2.13,0,0,0-.43,1c-1.56,6.74-2.43,12.78-4,19.52-1.12,1.11-4.58.65-6.86-.19-2-.73-2.74-2.37-4.06-4s-1.08-1.37-3-2.19c-3.57-1.52-10.45-.31-11.95,2.9s-.36,7.45.64,10.61a48.14,48.14,0,0,1-20.26-28.1"/></g><g class="cls-7"><path class="cls-8" d="M440,242.49c-.28.56,8.65,30.66,8.65,30.66l-11.58-6.59Z"/></g><path class="cls-9" d="M368.1,155.15v47.93a11.57,11.57,0,0,0,2.74,7.48h0a34.87,34.87,0,0,0,9.62,8l9.67,5.44,8-7.14a11.66,11.66,0,0,0,3.87-8.22c.14-3.49.14-7,.14-7s13.55-1,14.82-14.33c.6-6.29.79-19.18.82-31.05a26,26,0,0,0-23.85-26l-.39,0A24.85,24.85,0,0,0,368.1,155.15Z"/><path class="cls-10" d="M402.14,201.61a32.37,32.37,0,0,1-17-6.59s3.5,10.14,17,10Z"/><path d="M413.83,164.82a1.92,1.92,0,0,1-2,1.77,1.83,1.83,0,0,1-1.82-1.88,1.91,1.91,0,0,1,2-1.78A1.84,1.84,0,0,1,413.83,164.82Z"/><path d="M414.37,161.62c-.26.23-1.62-1-3.68-1.13s-3.64.74-3.85.47.18-.55.88-1a5.23,5.23,0,0,1,3.11-.69,5.1,5.1,0,0,1,2.89,1.21C414.32,161.05,414.49,161.52,414.37,161.62Z"/><path d="M394.44,163.84a1.93,1.93,0,0,1-2,1.78,1.84,1.84,0,0,1-1.83-1.89,1.92,1.92,0,0,1,2-1.78A1.84,1.84,0,0,1,394.44,163.84Z"/><path d="M394.13,160.33c-.26.23-1.62-1-3.67-1.13s-3.65.74-3.85.47c-.1-.12.17-.55.87-1a5.23,5.23,0,0,1,3.11-.69,5.14,5.14,0,0,1,2.9,1.21C394.08,159.76,394.25,160.23,394.13,160.33Z"/><path d="M400.33,176.19a13.72,13.72,0,0,1,3.39-.33c.53,0,1-.07,1.15-.42a2.77,2.77,0,0,0-.22-1.59c-.39-1.31-.8-2.68-1.22-4.12-1.69-5.87-2.86-10.68-2.62-10.74s1.79,4.63,3.47,10.5c.41,1.45.79,2.83,1.16,4.15a3.05,3.05,0,0,1,.1,2.08,1.33,1.33,0,0,1-.93.7,4.13,4.13,0,0,1-.9.05A13.09,13.09,0,0,1,400.33,176.19Z"/><path d="M394.16,177.11c.34,0,.16,2.24,1.93,4s4.18,1.7,4.17,2c0,.14-.57.39-1.57.33a5.51,5.51,0,0,1-3.49-1.55,4.85,4.85,0,0,1-1.48-3.32C393.71,177.62,394,177.09,394.16,177.11Z"/><path d="M395.33,152.32c-.25.54-2.28.1-4.72.2s-4.44.58-4.72,0c-.12-.25.26-.74,1.09-1.22a8.2,8.2,0,0,1,7.19-.2C395,151.58,395.44,152.06,395.33,152.32Z"/><path d="M414.1,155.61c-.4.43-1.77-.17-3.47-.33s-3.17.05-3.47-.47c-.12-.24.14-.69.81-1.08a4.77,4.77,0,0,1,2.89-.53,4.84,4.84,0,0,1,2.7,1.16C414.12,154.89,414.28,155.39,414.1,155.61Z"/><path d="M383.84,141.68l-.08,0a10.56,10.56,0,0,0-4.47,6.48l-.06.27c-.84,3.77-1.07,7.66-1.94,11.42s-.72,6.64-4.49,7.49a5,5,0,0,1-5.25-2.13,3.38,3.38,0,0,1-.33-1.79c0-9.27-1.81-12.87-1-22.5a8.14,8.14,0,0,1,3.92-6.33c2.14-1.28,4.72-2.58,6.88-1.33s4.71,5.68,6.3,7.61"/><path class="cls-9" d="M372.11,161.57c-.22-.12-9-3.48-9.43,5.69s8.84,7.75,8.87,7.48S372.11,161.57,372.11,161.57Z"/><path class="cls-10" d="M368.92,171.13s-.16.1-.44.21a1.58,1.58,0,0,1-1.19,0c-1-.41-1.69-2-1.65-3.64a5.32,5.32,0,0,1,.56-2.27,1.84,1.84,0,0,1,1.26-1.16.81.81,0,0,1,.92.48c.11.27.05.45.09.46s.21-.14.15-.52a1,1,0,0,0-.33-.59,1.2,1.2,0,0,0-.87-.28,2.24,2.24,0,0,0-1.74,1.33,5.44,5.44,0,0,0-.68,2.53c0,1.85.82,3.63,2.13,4.08a1.72,1.72,0,0,0,1.47-.17C368.89,171.35,369,171.15,368.92,171.13Z"/><path d="M376.59,134.7c-1.95-3.84,4.65-8.59,9.29-9.64s10.39,1.65,14.76,3.51c2.75,1.17,5.47,2.72,8.46,2.84a20,20,0,0,0,5.92-1,14.92,14.92,0,0,1,6-.67,5.56,5.56,0,0,1,4.56,3.45c.6,1.92-.69,4.37-2.7,4.48a4.5,4.5,0,1,1,.51,8.42c1.38-.88,3.24.92,3,2.53s-1.87,2.67-3.42,3.2c-3.95,1.36-8.35.46-12.19-1.2s-7.33-4-11.12-5.78-10.14-4.85-14.18-3.79c-3,.78-5.28,4.1-6.85,3.19a5.61,5.61,0,0,1-2.55-4.35,16.37,16.37,0,0,1,.61-5.19"/><path class="cls-6" d="M424,137.51c-.08,0-.53.64-1.6,1.62A12.6,12.6,0,0,1,417,142a11.65,11.65,0,0,1-8.7-1.07c-3-1.65-5.42-4.66-8.27-7.54s-6.28-5.16-9.87-5.79a10.54,10.54,0,0,0-9,2.31,8,8,0,0,0-2.57,5.74,6.27,6.27,0,0,0,.26,1.71c.13.37.22.56.25.55a15.63,15.63,0,0,1-.15-2.25,7.83,7.83,0,0,1,2.64-5.28,10,10,0,0,1,8.41-2c3.35.63,6.61,2.78,9.38,5.61s5.3,5.91,8.51,7.63a12.49,12.49,0,0,0,14.69-2.25,8.79,8.79,0,0,0,1.08-1.35C423.89,137.71,424,137.53,424,137.51Z"/><path class="cls-6" d="M369.82,161s.41-.22.82-.92a6.2,6.2,0,0,0,.73-3.27c0-3-2.3-6.34-2.3-10.44a9.25,9.25,0,0,1,1.46-5.38,7,7,0,0,1,3.65-2.65,5.85,5.85,0,0,1,3.08-.16c.73.17,1.11.38,1.15.31s-.3-.35-1-.65a5.73,5.73,0,0,0-3.37-.12,7.43,7.43,0,0,0-4.15,2.79,9.76,9.76,0,0,0-1.69,5.87,16.87,16.87,0,0,0,1.29,5.91,17.42,17.42,0,0,1,1.28,4.55A7.07,7.07,0,0,1,369.82,161Z"/><path class="cls-4" d="M407.54,425.82s-.7,0-2.07.05l-6.06.09c-5.33.08-13.19.28-23.3.78s-22.47,1.42-36.76,3.05c-7.13.86-14.76,1.84-22.8,3.17s-16.52,2.89-25.34,4.9-18,4.4-27.38,7.46A183,183,0,0,0,235.44,457a91.9,91.9,0,0,0-13.62,8.7,43.49,43.49,0,0,0-11.15,12.19c-.34.62-.7,1.22-1,1.84l-.79,2-.39,1c-.11.34-.17.69-.26,1l-.5,2.06a20.71,20.71,0,0,0,.42,8.47c1.36,5.63,5.07,10.48,9.33,14.57,8.7,8.17,19.8,13.85,31.31,18.62A255.43,255.43,0,0,0,285.24,539c25.29,6.16,52.1,9.79,79.62,11.73a632.33,632.33,0,0,0,80.56.31,506.52,506.52,0,0,0,74.37-9.7,313,313,0,0,0,33.72-9.1,166.72,166.72,0,0,0,30.14-13.13,81.56,81.56,0,0,0,12.71-9.05,36.53,36.53,0,0,0,9.2-11.71l.68-1.7a8,8,0,0,0,.59-1.71l.43-1.76c.06-.29.15-.58.19-.87l.08-.9a17.52,17.52,0,0,0-.53-7,24.77,24.77,0,0,0-2.93-6.27,38.09,38.09,0,0,0-4.3-5.28,64.94,64.94,0,0,0-10.17-8.38,106,106,0,0,0-10.77-6.42,186.31,186.31,0,0,0-21-9.36,316,316,0,0,0-35.21-10.85c-9.82-2.46-17.53-4-22.76-5-2.62-.53-4.62-.86-6-1.12s-2-.39-2-.39,2.77.41,8,1.36,13,2.46,22.81,4.87A313.9,313.9,0,0,1,558,448.33,186.23,186.23,0,0,1,579,457.65a106.28,106.28,0,0,1,10.84,6.43,65.54,65.54,0,0,1,10.26,8.42,39.33,39.33,0,0,1,4.37,5.35,25.6,25.6,0,0,1,3,6.41,18.22,18.22,0,0,1,.55,7.21l-.07.92c0,.3-.14.6-.2.9l-.44,1.8a8.71,8.71,0,0,1-.6,1.76l-.69,1.73a37.27,37.27,0,0,1-9.32,11.91,83.15,83.15,0,0,1-12.8,9.14,167.86,167.86,0,0,1-30.24,13.22A316.47,316.47,0,0,1,519.93,542a506.44,506.44,0,0,1-74.47,9.76,631.87,631.87,0,0,1-80.65-.3c-27.56-1.94-54.4-5.58-79.74-11.76A256.41,256.41,0,0,1,248.5,528.1c-11.54-4.79-22.69-10.5-31.5-18.78-4.31-4.14-8.1-9.08-9.5-14.89a21.15,21.15,0,0,1-.42-8.74l.51-2.12c.09-.35.16-.71.27-1.06l.4-1,.81-2c.33-.64.7-1.26,1.05-1.88a43.83,43.83,0,0,1,11.32-12.37,92.78,92.78,0,0,1,13.72-8.74,183.34,183.34,0,0,1,28.5-11.72c9.41-3.05,18.6-5.44,27.44-7.43s17.32-3.58,25.38-4.85,15.68-2.28,22.83-3.12c14.3-1.6,26.67-2.45,36.78-2.93s18-.61,23.31-.65h6.07C406.84,425.8,407.54,425.82,407.54,425.82Z"/><path class="cls-4" d="M294.05,320.6s-.79.18-2.33.49-3.86.74-6.86,1.39c-6,1.25-14.9,3.18-26.17,6.26a267.88,267.88,0,0,0-40.09,14.17c-3.76,1.73-7.62,3.63-11.46,5.81a108,108,0,0,0-11.52,7.39A62.83,62.83,0,0,0,185,365.87a33.53,33.53,0,0,0-7.21,13.21,24.26,24.26,0,0,0,1.15,15.55,40.22,40.22,0,0,0,9.61,13.45c8.22,7.88,18.65,13.86,29.75,19,22.37,10.17,47.91,17,75,22.07a629.83,629.83,0,0,0,86.07,9.49,741.66,741.66,0,0,0,93-1.66c31.76-2.64,62.65-7.3,91.72-14.94a275.86,275.86,0,0,0,41.78-14.34,142.29,142.29,0,0,0,18.87-10.08,71.8,71.8,0,0,0,15.9-13.41c4.43-5.18,7.69-11.53,7.88-18.23a15.82,15.82,0,0,0-.08-2.48,15.56,15.56,0,0,0-.27-2.46l-.54-2.41a15.22,15.22,0,0,0-.79-2.33,34.91,34.91,0,0,0-4.76-8.52,65.76,65.76,0,0,0-14.09-13,126.61,126.61,0,0,0-16.13-9.42,226.88,226.88,0,0,0-33-13c-10.88-3.4-21.49-6.1-31.69-8.36-40.87-8.81-74.75-11.21-98.05-12.5-11.67-.61-20.75-.64-26.9-.79l-7-.15c-1.58,0-2.39-.08-2.39-.08h2.39l7,.08c6.15.11,15.23.09,26.9.65,23.31,1.21,57.22,3.53,98.15,12.29,10.21,2.25,20.84,4.93,31.75,8.33a228.08,228.08,0,0,1,33.12,13,126.93,126.93,0,0,1,16.22,9.46,65.7,65.7,0,0,1,14.23,13.13,35.12,35.12,0,0,1,4.86,8.67,16.85,16.85,0,0,1,.82,2.39l.55,2.47a16.32,16.32,0,0,1,.28,2.53,18,18,0,0,1,.09,2.55,25.87,25.87,0,0,1-2.41,9.93,37.31,37.31,0,0,1-5.62,8.7,72.49,72.49,0,0,1-16,13.55,144.35,144.35,0,0,1-19,10.14,275.8,275.8,0,0,1-41.88,14.4c-29.12,7.65-60.05,12.33-91.84,15a741.26,741.26,0,0,1-93.06,1.64,627.89,627.89,0,0,1-86.15-9.55c-27.14-5.11-52.72-12-75.15-22.17-11.13-5.17-21.6-11.17-29.89-19.14a40.91,40.91,0,0,1-9.72-13.64A24.79,24.79,0,0,1,177.3,379a33.84,33.84,0,0,1,7.33-13.4,63.35,63.35,0,0,1,10.72-9.82,106.42,106.42,0,0,1,11.57-7.39c3.87-2.19,7.74-4.08,11.52-5.81a266.11,266.11,0,0,1,40.18-14.07c11.29-3,20.17-4.93,26.21-6.14S294.05,320.6,294.05,320.6Z"/><path class="cls-4" d="M342.73,530.16l-6.93,1.1c-4.53.72-11.22,1.87-19.75,3.74a252.43,252.43,0,0,0-30.59,8.62,143,143,0,0,0-18.19,7.91,78.73,78.73,0,0,0-9.23,5.64,48.29,48.29,0,0,0-8.49,7.56,27.71,27.71,0,0,0-3.35,4.83,19,19,0,0,0-2.07,5.61c-.08.5-.2,1-.24,1.51l-.09,1.52c0,1,.13,2,.22,3.08a29.72,29.72,0,0,0,.8,3l.58,1.46.3.73.39.69a34.31,34.31,0,0,0,8.34,9.82,68.76,68.76,0,0,0,11.19,7.51,148.61,148.61,0,0,0,26.18,10.93A271.27,271.27,0,0,0,321,622.89a436.39,436.39,0,0,0,64.24,7.68,524.89,524.89,0,0,0,69.45-1.21c23.72-2.05,46.8-5.69,68.42-11.79a172.7,172.7,0,0,0,30.82-11.75,76.89,76.89,0,0,0,13.41-8.66c1.06-.78,1.95-1.76,2.92-2.63s1.77-1.92,2.66-2.86a25.58,25.58,0,0,0,4-6.61,17.72,17.72,0,0,0-.61-14.64,35.07,35.07,0,0,0-9.57-11.13c-7.65-6.09-16.34-10.18-24.82-13.59a208.33,208.33,0,0,0-25.27-8.09c-8.24-2.13-16.25-3.81-23.94-5.16a475.72,475.72,0,0,0-73.56-6.73L392,525.58s9.65-.13,27.12,0a469.54,469.54,0,0,1,73.61,6.59c7.69,1.34,15.71,3,24,5.13A210,210,0,0,1,542,545.37c8.51,3.41,17.23,7.5,24.93,13.62a35.6,35.6,0,0,1,9.68,11.26,18.11,18.11,0,0,1,.63,15,25.74,25.74,0,0,1-4,6.71c-.89,1-1.72,2-2.68,2.9s-1.89,1.86-2.95,2.66a77.51,77.51,0,0,1-13.48,8.71A173.15,173.15,0,0,1,523.21,618c-21.65,6.12-44.75,9.76-68.49,11.81A520.79,520.79,0,0,1,385.2,631a434.35,434.35,0,0,1-64.28-7.71,270.82,270.82,0,0,1-29.23-7.49,147.85,147.85,0,0,1-26.24-11,68.76,68.76,0,0,1-11.24-7.55,34.82,34.82,0,0,1-8.42-9.94l-.39-.7-.3-.74-.6-1.48c-.38-1-.53-2.06-.81-3.07-.09-1.05-.21-2.09-.22-3.13l.09-1.56c.05-.51.17-1,.26-1.53a19.52,19.52,0,0,1,2.1-5.7,28,28,0,0,1,3.4-4.88,48,48,0,0,1,8.55-7.6,80.11,80.11,0,0,1,9.27-5.65,143.17,143.17,0,0,1,18.24-7.88A249.83,249.83,0,0,1,316,534.83c8.53-1.84,15.23-3,19.77-3.66S342.73,530.16,342.73,530.16Z"/><path class="cls-4" d="M524.06,657.15a14.09,14.09,0,0,0-1.15-5.06c-1.29-3.18-4.74-7.14-10.17-10.72-10.91-7.18-29.15-13.22-52.11-16.9a316.14,316.14,0,0,0-37.89-3.71,363.74,363.74,0,0,0-43.68.8c-7.67.61-15.52,1.49-23.47,2.76a224,224,0,0,0-24.12,5.08c-4,1.09-8.07,2.35-12.07,3.82a97.92,97.92,0,0,0-11.78,5.14,47.38,47.38,0,0,0-10.68,7.39c-3.16,3-5.72,6.93-5.79,11.39s2.62,8.45,5.77,11.4a48,48,0,0,0,10.68,7.4,98.06,98.06,0,0,0,11.79,5.14c4,1.46,8,2.72,12.07,3.81A222.14,222.14,0,0,0,355.58,690c8,1.27,15.81,2.15,23.48,2.76a363.91,363.91,0,0,0,43.69.8,316.35,316.35,0,0,0,37.89-3.71c23-3.69,41.19-9.72,52.11-16.9,5.42-3.58,8.87-7.54,10.16-10.72a14.09,14.09,0,0,0,1.15-5.06c0,.21,0,.56-.09,1.33a7.26,7.26,0,0,1-.29,1.61,10.55,10.55,0,0,1-.72,2.14c-1.27,3.21-4.72,7.19-10.15,10.79-10.92,7.23-29.17,13.3-52.14,17a314.08,314.08,0,0,1-37.91,3.75A364.15,364.15,0,0,1,379,693c-7.68-.61-15.53-1.49-23.5-2.76a224.48,224.48,0,0,1-24.15-5.08c-4.05-1.09-8.09-2.35-12.1-3.83a96.09,96.09,0,0,1-11.82-5.15,47.81,47.81,0,0,1-10.75-7.44,21,21,0,0,1-4.09-5.21,12.43,12.43,0,0,1,0-12.8,20.93,20.93,0,0,1,4.1-5.2,48.31,48.31,0,0,1,10.74-7.44A97.64,97.64,0,0,1,319.3,633c4-1.47,8.05-2.73,12.1-3.82a222.41,222.41,0,0,1,24.14-5.08c8-1.27,15.82-2.15,23.5-2.76a364,364,0,0,1,43.71-.77,314.08,314.08,0,0,1,37.91,3.75c23,3.71,41.23,9.78,52.15,17,5.43,3.61,8.87,7.59,10.15,10.8a10.55,10.55,0,0,1,.72,2.14,7.26,7.26,0,0,1,.29,1.61C524,656.59,524.05,656.94,524.06,657.15Z"/><path class="cls-4" d="M217.26,441.77a4.44,4.44,0,1,1-4.44-4.44A4.43,4.43,0,0,1,217.26,441.77Z"/><circle class="cls-4" cx="613.78" cy="444.77" r="4.43"/><path class="cls-4" d="M437.39,608.14A4.44,4.44,0,1,1,433,603.7,4.44,4.44,0,0,1,437.39,608.14Z"/><path class="cls-4" d="M302.75,494.2a2.22,2.22,0,1,1-2.21-2.21A2.21,2.21,0,0,1,302.75,494.2Z"/><path class="cls-4" d="M578.42,547.92a2.22,2.22,0,1,1-2.21-2.21A2.21,2.21,0,0,1,578.42,547.92Z"/><path class="cls-4" d="M403.43,650.45a2.22,2.22,0,1,1-2.22-2.22A2.22,2.22,0,0,1,403.43,650.45Z"/><circle class="cls-4" cx="287.72" cy="262.35" r="1.11"/><path class="cls-4" d="M487.58,432.88c-53.84,14.26-105.73,13.18-162.29,0L318.68,329.5c58.45,11.37,117.12,9.93,168.9-2.45Z"/><g class="cls-5"><path class="cls-6" d="M487.58,432.88c-53.84,14.26-105.73,13.18-162.29,0L318.68,329.5c58.45,11.37,117.12,9.93,168.9-2.45Z"/></g><path class="cls-4" d="M479.24,417.16a1.65,1.65,0,0,1-.34.17l-1,.43c-.9.36-2.21.95-3.94,1.57A149.68,149.68,0,0,1,459,424c-12.74,3.4-30.93,6.11-51.08,5.83a297.38,297.38,0,0,1-51.19-5.48c-6.48-1.23-11.69-2.36-15.28-3.2-1.79-.4-3.18-.75-4.12-1l-1.07-.27-.36-.12s.13,0,.38,0l1.08.21,4.15.86c3.61.75,8.83,1.81,15.31,3A314.85,314.85,0,0,0,408,429.11a201.3,201.3,0,0,0,50.94-5.6c6.38-1.61,11.46-3.22,14.93-4.45,1.75-.58,3.07-1.12,4-1.43l1-.37A2.21,2.21,0,0,1,479.24,417.16Z"/><path class="cls-4" d="M400.14,421.38c-6.76,2-13.69,1.47-20.73-.69v-36.8a52,52,0,0,1,20.73,0Z"/><path class="cls-4" d="M433.6,419.19a1.21,1.21,0,0,1,0-.29c0-.21,0-.47,0-.8,0-.75,0-1.77-.08-3.07-.05-2.72-.13-6.59-.23-11.43-.14-9.76-.35-23.43-.59-39.27l.28.33a55.66,55.66,0,0,0-21.45,0l.29-.36v.73c.22,21.75.42,41.39.56,55.42l-.2-.24a49.38,49.38,0,0,0,9,1.1,31.88,31.88,0,0,0,11-1.66l1-.37a2,2,0,0,1,.39-.11,2.19,2.19,0,0,1-.33.16l-1.06.45A28.59,28.59,0,0,1,428,421a32.18,32.18,0,0,1-6.88.68,47,47,0,0,1-9.13-1l-.2,0v-.21c-.2-14-.48-33.66-.78-55.41v-1l.3-.06a55.9,55.9,0,0,1,21.73,0l.27.05v.28c.12,15.92.23,29.65.3,39.46,0,4.82,0,8.67,0,11.37,0,1.28,0,2.28,0,3,0,.31,0,.56,0,.77A1.15,1.15,0,0,1,433.6,419.19Z"/><path class="cls-4" d="M465.46,414.86c-5.55,3-12.86,3.4-20.73,2.95V357c7-1.5,14-1.78,20.73,0Z"/><path class="cls-4" d="M367.22,418.37s0-.57-.07-1.56,0-2.49-.08-4.25c0-3.7-.1-8.82-.16-14.92l.2.29c-5.55-2-12.5-4-20-3.31h0l.32-.36c0,7.58,0,14.69,0,20.73l-.2-.29a39.19,39.19,0,0,0,8,2.29c2.45.44,4.61.69,6.39.87l4.15.35a12.47,12.47,0,0,1,1.47.16,10.24,10.24,0,0,1-1.48,0c-1,0-2.37-.06-4.17-.18s-4-.33-6.45-.73a38.8,38.8,0,0,1-8.16-2.21l-.19-.08V415c0-6,0-13.15,0-20.73v-.34l.33,0h0c7.63-.67,14.67,1.34,20.24,3.44l.21.08v.22c-.07,6.19-.13,11.38-.17,15.13,0,1.73-.06,3.12-.08,4.17A8.72,8.72,0,0,1,367.22,418.37Z"/><path class="cls-4" d="M377,364.59a20.08,20.08,0,0,1-4.05.25c-2.51,0-6,0-9.8-.23s-7.27-.59-9.75-.92a21,21,0,0,1-4-.72,23.88,23.88,0,0,1,4.05.21c2.5.21,5.94.48,9.75.7s7.25.36,9.75.45A25.46,25.46,0,0,1,377,364.59Z"/><path class="cls-4" d="M373.89,369.12a18.8,18.8,0,0,1-3.56,0c-2.2-.1-5.23-.3-8.57-.55s-6.37-.53-8.55-.76a17.61,17.61,0,0,1-3.52-.53,17,17,0,0,1,3.57,0c2.19.1,5.22.29,8.55.55s6.36.53,8.55.76A17.28,17.28,0,0,1,373.89,369.12Z"/><path class="cls-4" d="M381.47,375.05a11.74,11.74,0,0,1,0-1.3c0-.88.08-2.08.14-3.58.15-3.13.36-7.55.61-13l.27.27a297.57,297.57,0,0,1-38.37-2.12l.4-.34h0v.28l0,.29,0,.59-.06,1.17c-.05.77-.09,1.55-.14,2.31-.09,1.54-.18,3-.27,4.54-.17,3-.35,5.88-.51,8.64l-.3-.36c11.09,1.37,20.68,1.95,27.47,2.21l8,.24,2.09.07a4.94,4.94,0,0,1,.76.05s-.22,0-.7.05-1.23,0-2.16.06c-1.85,0-4.55,0-8,0-6.81-.15-16.42-.64-27.54-2l-.32,0v-.32c.16-2.76.32-5.65.49-8.64.09-1.49.17-3,.26-4.54.05-.77.09-1.54.13-2.31l.07-1.17,0-.59V355h0l.41-.34A327.05,327.05,0,0,0,382.5,357h.29l0,.28c-.38,5.48-.68,9.94-.9,13.11-.12,1.48-.21,2.65-.27,3.52A9.28,9.28,0,0,1,381.47,375.05Z"/><path class="cls-4" d="M386.2,382.84c-.18.1-1.33-1.58-2.67-3.7s-2.23-4-2.06-4.1,1.33,1.59,2.67,3.71S386.37,382.75,386.2,382.84Z"/><path class="cls-4" d="M161.24,248.21l17.6,106.47S205.7,405,277.08,416.32l-11.51-95S199.55,300.86,161.24,248.21Z"/><g class="cls-5"><path class="cls-6" d="M161.24,248.21l17.6,106.47S205.7,405,277.08,416.32l-11.51-95S199.55,300.86,161.24,248.21Z"/></g><path class="cls-4" d="M267.88,408.73a1.57,1.57,0,0,1-.46-.1l-1.31-.38-5-1.53c-2.17-.7-4.88-1.42-7.89-2.65l-4.86-1.85c-1.73-.64-3.55-1.33-5.39-2.22-3.72-1.7-7.84-3.45-12-5.8-4.3-2.17-8.66-4.9-13.21-7.8a132.76,132.76,0,0,1-26.53-23,79.75,79.75,0,0,1-9.57-13.35l0,0V350c-3.21-20.74-6-39-8.06-52.07-1-6.49-1.76-11.71-2.31-15.36-.25-1.76-.44-3.15-.59-4.13,0-.45-.1-.8-.13-1.08a1.69,1.69,0,0,1,0-.37,1.8,1.8,0,0,1,.09.36c.05.28.12.63.2,1.07l.71,4.11c.6,3.64,1.45,8.85,2.52,15.33,2.09,13.09,5,31.3,8.3,52l0-.1a79.47,79.47,0,0,0,9.48,13.2,133.66,133.66,0,0,0,26.35,22.9c4.52,2.91,8.85,5.65,13.12,7.83,4.17,2.37,8.27,4.14,12,5.87,1.83.9,3.64,1.59,5.35,2.26l4.83,1.89c3,1.27,5.68,2,7.84,2.76l5,1.66,1.29.45A2.78,2.78,0,0,1,267.88,408.73Z"/><path class="cls-4" d="M261.6,377.83s-.07.08-.24.22l-.76.61-3,2.31-11.21,8.59-.17.13-.14-.18-13.71-19,.42.07-10.51,7.49-.35.25-.15-.41c-4.1-11.13-8.71-23.61-13.55-36.76-.66-1.77-1.31-3.54-1.95-5.29l.66,0-8.56,17-.37.73-.27-.78-17.89-51.56.38,0c-1.12,4.74-2,8.48-2.63,11.09-.3,1.25-.54,2.22-.72,2.92l-.19.75a.9.9,0,0,1-.09.25.86.86,0,0,1,0-.26l.15-.76c.15-.71.35-1.69.62-2.94.58-2.62,1.4-6.38,2.45-11.14l.15-.67.23.65,18.17,51.46-.64,0,8.54-17,.37-.75.29.78,1.94,5.29c4.83,13.16,9.41,25.65,13.5,36.78l-.5-.15,10.54-7.44.25-.18.17.25,13.58,19.07-.31-.05,11.33-8.43,3-2.22.79-.56A1.51,1.51,0,0,1,261.6,377.83Z"/><path class="cls-4" d="M259.14,326.76a6,6,0,0,1-1.5-.33c-.95-.26-2.31-.68-4-1.23-3.34-1.11-7.91-2.82-12.82-5a135.27,135.27,0,0,1-12.25-6.29c-1.52-.89-2.74-1.64-3.56-2.18a5.37,5.37,0,0,1-1.24-.91,6.61,6.61,0,0,1,1.38.67l3.67,2c3.09,1.66,7.41,3.87,12.3,6.08s9.4,4,12.69,5.21l3.91,1.44A6,6,0,0,1,259.14,326.76Z"/><path class="cls-4" d="M262,331.18a14.72,14.72,0,0,1-3.45-.61,79.95,79.95,0,0,1-15.88-5.68,15.3,15.3,0,0,1-3.06-1.71,18.72,18.72,0,0,1,3.27,1.24c2,.83,4.74,1.94,7.82,3.05s5.92,2,8,2.61A20.1,20.1,0,0,1,262,331.18Z"/><path class="cls-4" d="M233.84,370.57c0,.88-.53,1.59-1.19,1.59a1.44,1.44,0,0,1-1.2-1.59c0-.89.54-1.6,1.2-1.6S233.84,369.68,233.84,370.57Z"/><ellipse class="cls-4" cx="206.53" cy="336.91" rx="1.2" ry="1.6"/><path class="cls-4" d="M181.36,301.78c0,.88-.54,1.6-1.2,1.6s-1.19-.72-1.19-1.6.53-1.59,1.19-1.59A1.44,1.44,0,0,1,181.36,301.78Z"/><path class="cls-4" d="M626.91,267.18l-8.82,108.17s-25.75,46.26-96.65,48l8.76-108.91S592.05,312,626.91,267.18Z"/><path class="cls-4" d="M625.59,261.54c-2.31-7.49-7.91-18.16-21.24-20.38l-15.77,145.5s29.59-5.91,30.39-22.13c.07-1.4,6-73.71,7.47-91.62A29.4,29.4,0,0,0,625.59,261.54Z"/><g class="cls-5"><path class="cls-6" d="M626.91,267.18l-8.82,108.17s-25.75,46.26-96.65,48l8.76-108.91S592.05,312,626.91,267.18Z"/></g><path class="cls-4" d="M624.79,294.76a64.17,64.17,0,0,0-11.3,35c-.07,3.59.14,7.31-1.22,10.62s-4.93,6.09-8.39,5.15c-3.62-1-5.23-5.27-8.41-7.27a9.37,9.37,0,0,0-9.51.2,15.93,15.93,0,0,0-6.24,7.6c-2.58,5.93-2.75,12.62-4.65,18.8s-6.55,12.41-13,12.69c-2.36.11-4.69-.61-7-.54-5,.15-9.32,3.86-11.65,8.28s-3,9.48-3.68,14.43c0,0,37.79,3.6,80.22-46.5Z"/><path class="cls-4" d="M564.7,360.37c0,1.35-.66,2.43-1.48,2.43s-1.48-1.08-1.48-2.43.66-2.43,1.48-2.43S564.7,359,564.7,360.37Z"/><path class="cls-4" d="M582.51,315.4c0,1.34-.67,2.43-1.49,2.43s-1.48-1.09-1.48-2.43S580.21,313,581,313,582.51,314.06,582.51,315.4Z"/><path class="cls-4" d="M623.94,300a2.69,2.69,0,0,1-.24.61l-.8,1.75c-.74,1.58-1.79,3.81-3.12,6.61-2.74,5.73-6.62,13.81-11.27,23.48l-.15.32-.3-.19-26.74-16.92.53-.17-1.11,2.74c-6.61,16.19-12.67,31-17.26,42.27l-.12.29-.27-.16c-6.67-3.75-12.11-6.76-15.89-8.81-1.89-1-3.37-1.82-4.38-2.33l-1.16-.56-.4-.18c0-.14,2.27.81,6.08,2.8s9.31,4.91,16,8.6l-.38.14c4.55-11.28,10.55-26.11,17.1-42.34l1.11-2.73.17-.4.36.23,26.69,17-.45.12c4.74-9.62,8.7-17.66,11.5-23.36,1.39-2.77,2.49-5,3.28-6.53.36-.71.66-1.28.88-1.71A3.93,3.93,0,0,1,623.94,300Z"/><rect class="cls-13" width="800" height="800"/></g></g></svg>